<?xml version="1.0" encoding="UTF-8"?>
<svg version="1.1" xmlns="http://www.w3.org/2000/svg" width="52" height="56">
<path d="M0 0 C1.99954746 -0.04254356 4.00041636 -0.04080783 6 0 C7.66433459 1.66433459 7.13592164 3.65970533 7.14526367 5.94702148 C7.15164352 7.00159042 7.15802338 8.05615936 7.16459656 9.14268494 C7.16570938 10.29055984 7.1668222 11.43843475 7.16796875 12.62109375 C7.17129715 13.79132584 7.17462555 14.96155792 7.17805481 16.16725159 C7.18312909 18.64803676 7.18546298 21.12882878 7.18530273 23.60961914 C7.18748857 27.41759419 7.20563751 31.22527943 7.22460938 35.03320312 C7.22754324 37.437499 7.22952808 39.84179627 7.23046875 42.24609375 C7.23765427 43.39194443 7.24483978 44.5377951 7.25224304 45.71836853 C7.24916641 46.77608963 7.24608978 47.83381073 7.24291992 48.92358398 C7.24434494 49.85766586 7.24576996 50.79174774 7.24723816 51.75413513 C7 54 7 54 5 56 C0.44444444 55.44444444 0.44444444 55.44444444 -1 54 C-1.09861162 52.38402315 -1.12798763 50.76375762 -1.12939453 49.14477539 C-1.13254669 48.1102272 -1.13569885 47.07567902 -1.13894653 46.00978088 C-1.1369223 44.88377975 -1.13489807 43.75777863 -1.1328125 42.59765625 C-1.13376923 41.44962021 -1.13472595 40.30158417 -1.13571167 39.11875916 C-1.13639374 36.68504787 -1.13453758 34.25133477 -1.13037109 31.81762695 C-1.12502811 28.08215257 -1.13031269 24.34679871 -1.13671875 20.61132812 C-1.13605788 18.2526039 -1.13477653 15.89387975 -1.1328125 13.53515625 C-1.13483673 12.41117935 -1.13686096 11.28720245 -1.13894653 10.12916565 C-1.13421829 8.57261513 -1.13421829 8.57261513 -1.12939453 6.98461914 C-1.12820114 5.61014366 -1.12820114 5.61014366 -1.12698364 4.207901 C-1 2 -1 2 0 0 Z " fill="#0187FC" transform="translate(23,0)"/>
<path d="M0 0 C4.70588235 0.70588235 4.70588235 0.70588235 6 2 C6.10312037 3.37059593 6.13848953 4.74639659 6.14526367 6.12084961 C6.15483345 7.43242287 6.15483345 7.43242287 6.16459656 8.77049255 C6.16570938 9.72150345 6.1668222 10.67251434 6.16796875 11.65234375 C6.17129715 12.62281143 6.17462555 13.59327911 6.17805481 14.59315491 C6.1831283 16.6502332 6.18546301 18.70731975 6.18530273 20.7644043 C6.18748826 23.92054744 6.20563691 27.07634071 6.22460938 30.23242188 C6.22754333 32.2265613 6.22952811 34.22070239 6.23046875 36.21484375 C6.23765427 37.16383041 6.24483978 38.11281708 6.25224304 39.09056091 C6.24916641 39.96809525 6.24608978 40.84562958 6.24291992 41.74975586 C6.24434494 42.5239537 6.24576996 43.29815155 6.24723816 44.09580994 C6 46 6 46 4 48 C1.375 47.625 1.375 47.625 -1 47 C-1.02527002 40.46721214 -1.04283292 33.93443679 -1.05493164 27.40161133 C-1.05997317 25.17732268 -1.06680623 22.95303737 -1.07543945 20.72875977 C-1.08751298 17.53921691 -1.09322996 14.34971771 -1.09765625 11.16015625 C-1.10281754 10.15912369 -1.10797882 9.15809113 -1.11329651 8.12672424 C-1.11337204 7.20584518 -1.11344757 6.28496613 -1.11352539 5.33618164 C-1.115746 4.52121719 -1.11796661 3.70625275 -1.12025452 2.86659241 C-1 1 -1 1 0 0 Z " fill="#0086FE" transform="translate(33,5)"/>
<path d="M0 0 C1.65 0.33 3.3 0.66 5 1 C5.02529825 7.37206172 5.04284496 13.74411054 5.05493164 20.11621094 C5.05996891 22.28516117 5.06679891 24.454108 5.07543945 26.62304688 C5.08753151 29.73568563 5.09323428 32.8482796 5.09765625 35.9609375 C5.10281754 36.934935 5.10797882 37.9089325 5.11329651 38.91244507 C5.11337204 39.81322784 5.11344757 40.71401062 5.11352539 41.64208984 C5.115746 42.43706879 5.11796661 43.23204773 5.12025452 44.05111694 C5 46 5 46 4 48 C1.5625 47.625 1.5625 47.625 -1 47 C-2.13302744 44.73394512 -2.13217607 43.48055189 -2.14526367 40.96508789 C-2.15164352 40.13405045 -2.15802338 39.303013 -2.16459656 38.4467926 C-2.16570938 37.54782761 -2.1668222 36.64886261 -2.16796875 35.72265625 C-2.17129715 34.80036728 -2.17462555 33.87807831 -2.17805481 32.92784119 C-2.1831227 30.97509257 -2.18546318 29.02233527 -2.18530273 27.06958008 C-2.18748857 24.07814296 -2.20564391 21.08707491 -2.22460938 18.09570312 C-2.22754342 16.2005221 -2.22952814 14.30533931 -2.23046875 12.41015625 C-2.23765427 11.51321548 -2.24483978 10.61627472 -2.25224304 9.69215393 C-2.24916641 8.85796432 -2.24608978 8.02377472 -2.24291992 7.16430664 C-2.24434494 6.4308754 -2.24576996 5.69744415 -2.24723816 4.94178772 C-2 3 -2 3 0 0 Z " fill="#0087FE" transform="translate(15,5)"/>
<path d="M0 0 C2.64 0 5.28 0 8 0 C8.05790353 3.29159316 8.09356261 6.58305603 8.125 9.875 C8.14175781 10.81214844 8.15851562 11.74929687 8.17578125 12.71484375 C8.18222656 13.61074219 8.18867188 14.50664063 8.1953125 15.4296875 C8.20578613 16.25710449 8.21625977 17.08452148 8.22705078 17.93701172 C8 20 8 20 6 22 C1.44444444 21.44444444 1.44444444 21.44444444 0 20 C-0.08669432 18.5112814 -0.10703494 17.018555 -0.09765625 15.52734375 C-0.09443359 14.62822266 -0.09121094 13.72910156 -0.08789062 12.80273438 C-0.07951172 11.85720703 -0.07113281 10.91167969 -0.0625 9.9375 C-0.05798828 8.98810547 -0.05347656 8.03871094 -0.04882812 7.06054688 C-0.0370011 4.70696935 -0.02052025 2.35351523 0 0 Z " fill="#73BB85" transform="translate(22,34)"/>
<path d="M0 0 C1.65 0 3.3 0 5 0 C5 11.22 5 22.44 5 34 C3.35 34 1.7 34 0 34 C0 22.78 0 11.56 0 0 Z " fill="#117AD9" transform="translate(41,15)"/>
<path d="M0 0 C1.32 0 2.64 0 4 0 C4 11.22 4 22.44 4 34 C2.35 33.67 0.7 33.34 -1 33 C-1.02465392 28.46102295 -1.04283789 23.92208457 -1.05493164 19.38305664 C-1.0599714 17.83780234 -1.0668032 16.29255284 -1.07543945 14.74731445 C-1.08752076 12.53074971 -1.09323173 10.31424782 -1.09765625 8.09765625 C-1.10281754 7.4028566 -1.10797882 6.70805695 -1.11329651 5.99220276 C-1.11349277 4.3277067 -1.06189129 2.66334501 -1 1 C-0.67 0.67 -0.34 0.34 0 0 Z " fill="#0187FE" transform="translate(7,15)"/>
<path d="M0 0 C2.31 0 4.62 0 7 0 C7.05380578 2.79192205 7.09357669 5.5828141 7.125 8.375 C7.15013672 9.56609375 7.15013672 9.56609375 7.17578125 10.78125 C7.19335473 12.85492015 7.10335168 14.92883241 7 17 C6.34 17.66 5.68 18.32 5 19 C3.35 18.67 1.7 18.34 0 18 C0 12.06 0 6.12 0 0 Z " fill="#00A2A8" transform="translate(32,34)"/>
<path d="M0 0 C2.31 0 4.62 0 7 0 C7.02690104 2.79173055 7.04679053 5.58320348 7.0625 8.375 C7.07087891 9.1690625 7.07925781 9.963125 7.08789062 10.78125 C7.11328125 16.7734375 7.11328125 16.7734375 6 19 C3.5625 18.625 3.5625 18.625 1 18 C-0.59412284 14.81175432 -0.10174735 11.37103338 -0.0625 7.875 C-0.05798828 7.12089844 -0.05347656 6.36679687 -0.04882812 5.58984375 C-0.03703499 3.72652873 -0.01909942 1.86325445 0 0 Z " fill="#F7C70B" transform="translate(13,34)"/>
<path d="M0 0 C0.66 0.33 1.32 0.66 2 1 C2.05399736 2.45792884 2.09279177 3.91642712 2.125 5.375 C2.14820313 6.18710937 2.17140625 6.99921875 2.1953125 7.8359375 C2 10 2 10 0 12 C-4.55555556 11.44444444 -4.55555556 11.44444444 -6 10 C-6.4375 7.1875 -6.4375 7.1875 -6 4 C-3 1.625 -3 1.625 0 0 Z " fill="#81C04A" transform="translate(28,44)"/>
<path d="M0 0 C1.32 0.33 2.64 0.66 4 1 C4 6.61 4 12.22 4 18 C2.68 18 1.36 18 0 18 C0 12.06 0 6.12 0 0 Z " fill="#913D65" transform="translate(0,25)"/>
<path d="M0 0 C0.99 0 1.98 0 3 0 C3 5.94 3 11.88 3 18 C1.68 18 0.36 18 -1 18 C-1.02684312 15.18743719 -1.04676188 12.37512759 -1.0625 9.5625 C-1.07087891 8.76005859 -1.07925781 7.95761719 -1.08789062 7.13085938 C-1.0965143 5.08704779 -1.0522815 3.04316098 -1 1 C-0.67 0.67 -0.34 0.34 0 0 Z " fill="#2765D2" transform="translate(49,25)"/>
<path d="M0 0 C1.65 0 3.3 0 5 0 C5 3.96 5 7.92 5 12 C3.35 11.67 1.7 11.34 0 11 C0 7.37 0 3.74 0 0 Z " fill="#DD7034" transform="translate(6,37)"/>
<path d="M0 0 C2.31 0 4.62 0 7 0 C7 2.64 7 5.28 7 8 C4.69 8 2.38 8 0 8 C0 5.36 0 2.72 0 0 Z " fill="#B2B54E" transform="translate(13,34)"/>
<path d="M0 0 C2.64 0 5.28 0 8 0 C7.67 1.65 7.34 3.3 7 5 C4.69 5.33 2.38 5.66 0 6 C0 4.02 0 2.04 0 0 Z " fill="#77BDB6" transform="translate(22,34)"/>
<path d="M0 0 C2.31 0 4.62 0 7 0 C7 1.65 7 3.3 7 5 C4.69 5.33 2.38 5.66 0 6 C0 4.02 0 2.04 0 0 Z " fill="#DDC023" transform="translate(13,42)"/>
<path d="M0 0 C1.32 0 2.64 0 4 0 C4 2.64 4 5.28 4 8 C2.68 8 1.36 8 0 8 C0 5.36 0 2.72 0 0 Z " fill="#4E44A6" transform="translate(48,35)"/>
<path d="M0 0 C2.31 0 4.62 0 7 0 C7 1.65 7 3.3 7 5 C4.69 5 2.38 5 0 5 C0 3.35 0 1.7 0 0 Z " fill="#0097CB" transform="translate(32,34)"/>
<path d="M0 0 C1.32 0.33 2.64 0.66 4 1 C4 3.31 4 5.62 4 8 C2.68 8 1.36 8 0 8 C0 5.36 0 2.72 0 0 Z " fill="#2971D3" transform="translate(0,25)"/>
<path d="M0 0 C2.31 0 4.62 0 7 0 C7 1.32 7 2.64 7 4 C4.69 4 2.38 4 0 4 C0 2.68 0 1.36 0 0 Z " fill="#7EA781" transform="translate(13,34)"/>
<path d="M0 0 C2.31 0 4.62 0 7 0 C7 1.32 7 2.64 7 4 C4.69 4 2.38 4 0 4 C0 2.68 0 1.36 0 0 Z " fill="#3B96C3" transform="translate(13,30)"/>
<path d="M0 0 C2.64 0 5.28 0 8 0 C8 0.99 8 1.98 8 3 C5.36 3 2.72 3 0 3 C0 2.01 0 1.02 0 0 Z " fill="#2898C4" transform="translate(22,31)"/>
<path d="M0 0 C2.31 0.33 4.62 0.66 7 1 C7 1.99 7 2.98 7 4 C4.69 4 2.38 4 0 4 C0 2.68 0 1.36 0 0 Z " fill="#008EE5" transform="translate(32,30)"/>
<path d="M0 0 C2.64 0 5.28 0 8 0 C6.37633534 3.24732932 3.24612161 3.70155136 0 5 C0 3.35 0 1.7 0 0 Z " fill="#73BA60" transform="translate(22,43)"/>
<path d="M0 0 C1.65 0 3.3 0 5 0 C5 1.32 5 2.64 5 4 C3.35 4 1.7 4 0 4 C0 2.68 0 1.36 0 0 Z " fill="#9B7770" transform="translate(6,37)"/>
<path d="M0 0 C1.65 0 3.3 0 5 0 C5 1.32 5 2.64 5 4 C3.35 4 1.7 4 0 4 C0 2.68 0 1.36 0 0 Z " fill="#4B7FB9" transform="translate(6,33)"/>
<path d="M0 0 C0.99 0 1.98 0 3 0 C3 1.65 3 3.3 3 5 C1.68 5 0.36 5 -1 5 C-0.67 3.35 -0.34 1.7 0 0 Z " fill="#0B7CF1" transform="translate(49,25)"/>
</svg>
